<?xml version="1.0" encoding="UTF-8" standalone="no"?>
<!DOCTYPE svg PUBLIC "-//W3C//DTD SVG 1.1//EN"
 "http://www.w3.org/Graphics/SVG/1.1/DTD/svg11.dtd">
<!-- Generated by graphviz version 3.0.0 (20220226.1711)
 -->
<!-- Title: G Pages: 1 -->
<svg width="510pt" height="159pt"
 viewBox="0.00 0.00 510.11 159.43" xmlns="http://www.w3.org/2000/svg" xmlns:xlink="http://www.w3.org/1999/xlink">
<g id="graph0" class="graph" transform="scale(1 1) rotate(0) translate(4 155.43)">
<title>G</title><style>.edge>path:hover{stroke-width:8}</style>
<polygon fill="white" stroke="transparent" points="-4,4 -4,-155.43 506.11,-155.43 506.11,4 -4,4"/>
<!-- Yaml -->
<g id="node1" class="node">
<title>Yaml</title><style>.edge>path:hover{stroke-width:8}</style>
<ellipse fill="#c24747" stroke="black" cx="82.97" cy="-133.43" rx="27" ry="18"/>
<text text-anchor="middle" x="82.97" y="-130.93" font-family="Helvetica,sans-Serif" font-size="10.00" fill="#ffffff">Yaml</text>
</g>
<!-- app_main -->
<g id="node5" class="node">
<title>app_main</title><style>.edge>path:hover{stroke-width:8}</style>
<ellipse fill="#80b34c" stroke="black" cx="32.97" cy="-21.21" rx="32.93" ry="18"/>
<text text-anchor="middle" x="32.97" y="-18.71" font-family="Helvetica,sans-Serif" font-size="10.00" fill="#000000">app.main</text>
</g>
<!-- Yaml&#45;&gt;app_main -->
<g id="edge1" class="edge">
<title>Yaml&#45;&gt;app_main</title><style>.edge>path:hover{stroke-width:8}</style>
<path fill="none" stroke="black" d="M82.97,-78.43C83.03,-63.71 73.35,-51.06 62.5,-41.51"/>
<polygon fill="#c24747" stroke="black" points="64.5,-38.63 54.51,-35.12 60.13,-44.1 64.5,-38.63"/>
<path fill="none" stroke="black" d="M82.93,-115.24C82.91,-104.87 82.91,-91.39 82.97,-79.43"/>
</g>
<!-- app_user_service -->
<g id="node6" class="node">
<title>app_user_service</title><style>.edge>path:hover{stroke-width:8}</style>
<ellipse fill="#7aac49" stroke="black" cx="133.97" cy="-21.21" rx="50.41" ry="21.43"/>
<text text-anchor="middle" x="133.97" y="-24.21" font-family="Helvetica,sans-Serif" font-size="10.00" fill="#000000">app.</text>
<text text-anchor="middle" x="133.97" y="-13.21" font-family="Helvetica,sans-Serif" font-size="10.00" fill="#000000">user_service</text>
</g>
<!-- Yaml&#45;&gt;app_user_service -->
<g id="edge2" class="edge">
<title>Yaml&#45;&gt;app_user_service</title><style>.edge>path:hover{stroke-width:8}</style>
<path fill="none" stroke="black" d="M82.97,-78.43C83.02,-65.74 90.25,-54.65 99.24,-45.74"/>
<polygon fill="#c24747" stroke="black" points="101.58,-48.34 106.73,-39.08 96.93,-43.11 101.58,-48.34"/>
</g>
<!-- app_Article -->
<g id="node2" class="node">
<title>app_Article</title><style>.edge>path:hover{stroke-width:8}</style>
<ellipse fill="#80b34c" stroke="black" cx="238.97" cy="-21.21" rx="37.17" ry="18"/>
<text text-anchor="middle" x="238.97" y="-18.71" font-family="Helvetica,sans-Serif" font-size="10.00" fill="#000000">app.Article</text>
</g>
<!-- app_Yaml -->
<g id="node3" class="node">
<title>app_Yaml</title><style>.edge>path:hover{stroke-width:8}</style>
<ellipse fill="#80b34c" stroke="black" cx="467.97" cy="-21.21" rx="34.29" ry="18"/>
<text text-anchor="middle" x="467.97" y="-18.71" font-family="Helvetica,sans-Serif" font-size="10.00" fill="#000000">app.Yaml</text>
</g>
<!-- app_account_service -->
<g id="node4" class="node">
<title>app_account_service</title><style>.edge>path:hover{stroke-width:8}</style>
<ellipse fill="#80b34c" stroke="black" cx="354.97" cy="-21.21" rx="60.62" ry="21.43"/>
<text text-anchor="middle" x="354.97" y="-24.21" font-family="Helvetica,sans-Serif" font-size="10.00" fill="#000000">app.</text>
<text text-anchor="middle" x="354.97" y="-13.21" font-family="Helvetica,sans-Serif" font-size="10.00" fill="#000000">account_service</text>
</g>
<!-- flask -->
<g id="node7" class="node">
<title>flask</title><style>.edge>path:hover{stroke-width:8}</style>
<ellipse fill="#26d9d9" stroke="black" cx="238.97" cy="-133.43" rx="27" ry="18"/>
<text text-anchor="middle" x="238.97" y="-130.93" font-family="Helvetica,sans-Serif" font-size="10.00" fill="#000000">flask</text>
</g>
<!-- flask&#45;&gt;app_Article -->
<g id="edge3" class="edge">
<title>flask&#45;&gt;app_Article</title><style>.edge>path:hover{stroke-width:8}</style>
<path fill="none" stroke="black" d="M238.97,-78.43C239.26,-69.03 239.34,-58.75 239.31,-49.58"/>
<polygon fill="#26d9d9" stroke="black" points="242.81,-49.42 239.25,-39.44 235.81,-49.46 242.81,-49.42"/>
</g>
<!-- flask&#45;&gt;app_account_service -->
<g id="edge4" class="edge">
<title>flask&#45;&gt;app_account_service</title><style>.edge>path:hover{stroke-width:8}</style>
<path fill="none" stroke="black" d="M238.97,-78.43C239.43,-63.69 270.14,-49.24 299.84,-38.67"/>
<polygon fill="#26d9d9" stroke="black" points="301.09,-41.95 309.41,-35.39 298.81,-35.33 301.09,-41.95"/>
</g>
<!-- flask&#45;&gt;app_user_service -->
<g id="edge5" class="edge">
<title>flask&#45;&gt;app_user_service</title><style>.edge>path:hover{stroke-width:8}</style>
<path fill="none" stroke="black" d="M238.97,-78.43C239.41,-64.47 210.15,-49.59 182.41,-38.65"/>
<polygon fill="#26d9d9" stroke="black" points="183.31,-35.24 172.72,-34.95 180.81,-41.78 183.31,-35.24"/>
<path fill="none" stroke="black" d="M238.69,-115.24C238.59,-104.86 238.59,-91.38 238.97,-79.43"/>
</g>
<!-- yaml -->
<g id="node8" class="node">
<title>yaml</title><style>.edge>path:hover{stroke-width:8}</style>
<ellipse fill="#8553b6" stroke="black" cx="467.97" cy="-133.43" rx="27" ry="18"/>
<text text-anchor="middle" x="467.97" y="-130.93" font-family="Helvetica,sans-Serif" font-size="10.00" fill="#ffffff">yaml</text>
</g>
<!-- yaml&#45;&gt;app_Yaml -->
<g id="edge6" class="edge">
<title>yaml&#45;&gt;app_Yaml</title><style>.edge>path:hover{stroke-width:8}</style>
<path fill="none" stroke="black" d="M467.97,-115.21C467.97,-97.57 467.97,-69.91 467.97,-49.34"/>
<polygon fill="#8553b6" stroke="black" points="471.47,-49.31 467.97,-39.31 464.47,-49.31 471.47,-49.31"/>
</g>
</g>
</svg>
