<?xml version="1.0" encoding="UTF-8" standalone="no"?>
<!DOCTYPE svg PUBLIC "-//W3C//DTD SVG 1.1//EN"
 "http://www.w3.org/Graphics/SVG/1.1/DTD/svg11.dtd">
<!-- Generated by graphviz version 3.0.0 (20220226.1711)
 -->
<!-- Title: G Pages: 1 -->
<svg width="259pt" height="282pt"
 viewBox="0.00 0.00 258.63 281.98" xmlns="http://www.w3.org/2000/svg" xmlns:xlink="http://www.w3.org/1999/xlink">
<g id="graph0" class="graph" transform="scale(1 1) rotate(0) translate(4 277.98)">
<title>G</title><style>.edge>path:hover{stroke-width:8}</style>
<polygon fill="white" stroke="transparent" points="-4,4 -4,-277.98 254.63,-277.98 254.63,4 -4,4"/>
<!-- app_flask_app -->
<g id="node1" class="node">
<title>app_flask_app</title><style>.edge>path:hover{stroke-width:8}</style>
<ellipse fill="#a44646" stroke="black" cx="141" cy="-18" rx="45.15" ry="18"/>
<text text-anchor="middle" x="141" y="-15.5" font-family="Helvetica,sans-Serif" font-size="10.00" fill="#ffffff">app.flask_app</text>
</g>
<!-- app_orm -->
<g id="node2" class="node">
<title>app_orm</title><style>.edge>path:hover{stroke-width:8}</style>
<ellipse fill="#a44646" stroke="black" cx="141" cy="-90" rx="30.72" ry="18"/>
<text text-anchor="middle" x="141" y="-87.5" font-family="Helvetica,sans-Serif" font-size="10.00" fill="#ffffff">app.orm</text>
</g>
<!-- flask -->
<g id="node3" class="node">
<title>flask</title><style>.edge>path:hover{stroke-width:8}</style>
<ellipse fill="#40c040" stroke="black" cx="27" cy="-162" rx="27" ry="18"/>
<text text-anchor="middle" x="27" y="-159.5" font-family="Helvetica,sans-Serif" font-size="10.00" fill="#000000">flask</text>
</g>
<!-- flask&#45;&gt;app_flask_app -->
<g id="edge1" class="edge">
<title>flask&#45;&gt;app_flask_app</title><style>.edge>path:hover{stroke-width:8}</style>
<path fill="none" stroke="black" d="M40.55,-146.32C52.58,-132.74 70.06,-111.59 82,-91"/>
<path fill="none" stroke="black" d="M82,-89C91.77,-72.15 105.71,-55.39 117.59,-42.5"/>
<polygon fill="#40c040" stroke="black" points="120.34,-44.68 124.66,-35 115.25,-39.87 120.34,-44.68"/>
</g>
<!-- sqlalchemy -->
<g id="node4" class="node">
<title>sqlalchemy</title><style>.edge>path:hover{stroke-width:8}</style>
<ellipse fill="#1919e6" stroke="black" cx="82" cy="-244.99" rx="38.7" ry="18"/>
<text text-anchor="middle" x="82" y="-242.49" font-family="Helvetica,sans-Serif" font-size="10.00" fill="#ffffff">sqlalchemy</text>
</g>
<!-- sqlalchemy&#45;&gt;app_flask_app -->
<g id="edge2" class="edge">
<title>sqlalchemy&#45;&gt;app_flask_app</title><style>.edge>path:hover{stroke-width:8}</style>
<path fill="none" stroke="black" d="M82,-161C88.01,-130.48 66.39,-117.91 82,-91"/>
<path fill="none" stroke="black" d="M80.09,-226.74C78.7,-210.21 77.73,-184.66 82,-163"/>
</g>
<!-- sqlalchemy&#45;&gt;app_orm -->
<g id="edge3" class="edge">
<title>sqlalchemy&#45;&gt;app_orm</title><style>.edge>path:hover{stroke-width:8}</style>
<path fill="none" stroke="black" d="M82,-161C85.93,-141.06 100.66,-123.57 114.42,-111.06"/>
<polygon fill="#1919e6" stroke="black" points="117,-113.45 122.31,-104.29 112.44,-108.14 117,-113.45"/>
</g>
<!-- sqlalchemy_orm -->
<g id="node5" class="node">
<title>sqlalchemy_orm</title><style>.edge>path:hover{stroke-width:8}</style>
<ellipse fill="#2323c8" stroke="black" cx="200" cy="-162" rx="50.75" ry="18"/>
<text text-anchor="middle" x="200" y="-159.5" font-family="Helvetica,sans-Serif" font-size="10.00" fill="#ffffff">sqlalchemy.orm</text>
</g>
<!-- sqlalchemy_orm&#45;&gt;app_flask_app -->
<g id="edge4" class="edge">
<title>sqlalchemy_orm&#45;&gt;app_flask_app</title><style>.edge>path:hover{stroke-width:8}</style>
<path fill="none" stroke="black" d="M198.57,-143.91C196.53,-125.47 191.76,-95.57 181,-72 176.35,-61.83 169.49,-51.76 162.75,-43.17"/>
<polygon fill="#2323c8" stroke="black" points="165.45,-40.94 156.4,-35.43 160.04,-45.38 165.45,-40.94"/>
</g>
<!-- sqlalchemy_orm&#45;&gt;app_orm -->
<g id="edge5" class="edge">
<title>sqlalchemy_orm&#45;&gt;app_orm</title><style>.edge>path:hover{stroke-width:8}</style>
<path fill="none" stroke="black" d="M186.02,-144.41C178.46,-135.44 169,-124.21 160.7,-114.37"/>
<polygon fill="#2323c8" stroke="black" points="163.19,-111.9 154.07,-106.51 157.84,-116.41 163.19,-111.9"/>
</g>
<!-- sqlalchemy_orm_mapper -->
<g id="node6" class="node">
<title>sqlalchemy_orm_mapper</title><style>.edge>path:hover{stroke-width:8}</style>
<ellipse fill="#3d3db8" stroke="black" cx="200" cy="-244.99" rx="48.58" ry="28.98"/>
<text text-anchor="middle" x="200" y="-253.49" font-family="Helvetica,sans-Serif" font-size="10.00" fill="#ffffff">sqlalchemy.</text>
<text text-anchor="middle" x="200" y="-242.49" font-family="Helvetica,sans-Serif" font-size="10.00" fill="#ffffff">orm.</text>
<text text-anchor="middle" x="200" y="-231.49" font-family="Helvetica,sans-Serif" font-size="10.00" fill="#ffffff">mapper</text>
</g>
<!-- sqlalchemy_orm_mapper&#45;&gt;app_orm -->
<g id="edge6" class="edge">
<title>sqlalchemy_orm_mapper&#45;&gt;app_orm</title><style>.edge>path:hover{stroke-width:8}</style>
<path fill="none" stroke="black" d="M170.99,-221.67C158.98,-210.6 146.38,-196.14 140,-180 132.21,-160.3 133.05,-136.18 135.51,-118.02"/>
<polygon fill="#3d3db8" stroke="black" points="138.97,-118.52 137.09,-108.09 132.06,-117.41 138.97,-118.52"/>
</g>
<!-- sqlalchemy_orm_mapper&#45;&gt;sqlalchemy_orm -->
<g id="edge7" class="edge">
<title>sqlalchemy_orm_mapper&#45;&gt;sqlalchemy_orm</title><style>.edge>path:hover{stroke-width:8}</style>
<path fill="none" stroke="black" d="M200,-215.66C200,-207.42 200,-198.43 200,-190.25"/>
<polygon fill="#3d3db8" stroke="black" points="203.5,-190.1 200,-180.1 196.5,-190.1 203.5,-190.1"/>
</g>
</g>
</svg>
